<svg xmlns="http://www.w3.org/2000/svg" viewBox="55.357 22.359 275.252 288.252"><path fill="#f2c36b" stroke="#1e4005" stroke-linecap="round" stroke-linejoin="round" stroke-width=".748" d="m68.06199,23.20669v70.55327h249.58338v-.06956c.08528.00464.16675.03477.25203.03477,7.01788.00005,12.71239-15.78015,12.71239-35.2375s-5.69451-35.22881-12.71239-35.22881c-.08528,0-.16675.03012-.25203.03474v-.08691H68.06199Z"></path><path fill="none" stroke="#1e4005" stroke-linecap="round" stroke-linejoin="round" stroke-width=".748" d="m68.06199,23.20687v70.5533h249.58338v-.06974c.08528.00464.16675.03466.25203.03466,7.01788,0,12.71239-15.78004,12.71239-35.23758s-5.69451-35.22865-12.71239-35.22865c-.08528,0-.16675.03002-.25203.03466v-.08666H68.06199Z"></path><path fill="none" d="m308.98329,93.75997v-.06956c.08487.00464.16675.03477.25203.03477,7.01788.00005,12.71239-15.78015,12.71239-35.2375s-5.69451-35.22881-12.71239-35.22881c-.08528,0-.16716.03012-.25203.03474v-.08691"></path><path fill="none" stroke="#1e4005" stroke-linecap="round" stroke-linejoin="round" stroke-width=".748" d="m308.98329,93.76017v-.06974c.08487.00464.16675.03466.25203.03466,7.01788,0,12.71239-15.78004,12.71239-35.23758s-5.69451-35.22865-12.71239-35.22865c-.08528,0-.16716.03002-.25203.03466v-.08666"></path><ellipse cx="68.065" cy="58.491" fill="#f24535" stroke="#1e4005" stroke-linecap="round" stroke-linejoin="round" stroke-width=".748" rx="12.707" ry="35.231"></ellipse><ellipse cx="68.065" cy="58.491" fill="none" stroke="#1e4005" stroke-linecap="round" stroke-linejoin="round" stroke-width=".748" rx="12.707" ry="35.231"></ellipse><path fill="none" stroke="#1e4005" stroke-linecap="round" stroke-linejoin="round" stroke-width=".748" d="m76.17152,31.24545c28.25407-.01645,249.98861-.06592,249.98861-.06592"></path><rect width=".086" height=".086" x="188.747" y="117.572" fill="none" stroke="#1e4005" stroke-linecap="round" stroke-linejoin="round" stroke-width=".748"></rect><path d="m115.79991,22.35904v.09403c.08636-.00456.16817-.04028.25497-.04028,7.1397-.00008,12.92371,16.04607,12.92373,35.84092,0,19.79474-5.78404,35.85438-12.92373,35.85435-.08675.00003-.16855-.03559-.25497-.04031v.08062h12.66874v-.08062c.08641.00472.16814.04034.25497.04031,7.1397.00003,12.93716-16.05961,12.93716-35.85435-.00003-19.79484-5.79746-35.84099-12.93716-35.84092-.0868,0-.16855.03572-.25497.04028v-.09403h-12.66874Z"></path><path fill="#69c42a" stroke="#1e4005" stroke-linecap="round" stroke-linejoin="round" stroke-width=".748" d="m115.79991,22.35925v.09383c.08636-.00464.16817-.04013.25497-.04013,7.1397-.00041,12.92371,16.04584,12.92373,35.84092,0,19.79466-5.78404,35.85407-12.92373,35.85407-.08675,0-.16855-.03549-.25497-.04013v.08067h12.66874v-.08067c.08641.00464.16814.04013.25497.04013,7.1397,0,12.93716-16.05941,12.93716-35.85407-.00003-19.79508-5.79746-35.84133-12.93716-35.84092-.0868,0-.16855.03549-.25497.04013v-.09383h-12.66874Z"></path><path d="m245.83109,22.35904v.09403c.08636-.00456.16819-.04028.25502-.04028,7.1397-.00008,12.92366,16.04607,12.92371,35.84092.00005,19.79474-5.78401,35.85438-12.92371,35.85435-.0868.00003-.1686-.03559-.25502-.04031v.08062h12.66874v-.08062c.08641.00472.16819.04034.25502.04031,7.1397.00003,12.93724-16.05961,12.93724-35.85435s-5.79754-35.84099-12.93724-35.84092c-.08683,0-.16855.03572-.25502.04028v-.09403h-12.66874Z"></path><path fill="#69c42a" stroke="#1e4005" stroke-linecap="round" stroke-linejoin="round" stroke-width=".748" d="m245.83109,22.35925v.09383c.08636-.00464.16819-.04013.25502-.04013,7.1397-.00041,12.92366,16.04584,12.92371,35.84092.00005,19.79466-5.78401,35.85407-12.92371,35.85407-.0868,0-.1686-.03549-.25502-.04013v.08067h12.66874v-.08067c.08641.00464.16819.04013.25502.04013,7.1397,0,12.93724-16.05941,12.93724-35.85407s-5.79754-35.84133-12.93724-35.84092c-.08683,0-.16855.03549-.25502.04013v-.09383h-12.66874Z"></path><path fill="#7ec14f" stroke="#1e4005" stroke-linecap="round" stroke-linejoin="round" stroke-width=".748" d="m113.39609,92.30826l58.76672-8.89383-10.6683,203.70686-57.8436-8.73213c-13.69121-2.06685-24.2025-14.96251-23.47766-28.80333l6.70366-128.00359c.73643-14.06246,12.60951-27.16885,26.51918-29.27399Z"></path><path fill="none" stroke="#1e4005" stroke-linecap="round" stroke-linejoin="round" stroke-width=".748" d="m113.39609,92.30828l58.76672-8.89383-10.6683,203.70664-57.8436-8.73197c-13.69121-2.06663-24.2025-14.96239-23.47766-28.80342l6.70366-128.00328c.73643-14.06282,12.60951-27.16904,26.51918-29.27414Z"></path><path fill="#7ec14f" stroke="#1e4005" stroke-linecap="round" stroke-linejoin="round" stroke-width=".748" d="m272.57092,92.30826l-58.76651-8.89383,10.66822,203.70686,57.84357-8.73213c13.69129-2.06685,24.2027-14.96251,23.47794-28.80333l-6.70386-128.00359c-.73661-14.06246-12.60938-27.16885-26.51936-29.27399Z"></path><path fill="none" stroke="#1e4005" stroke-linecap="round" stroke-linejoin="round" stroke-width=".748" d="m272.57092,92.30828l-58.76651-8.89383,10.66822,203.70664,57.84357-8.73197c13.69129-2.06663,24.2027-14.96239,23.47794-28.80342l-6.70386-128.00328c-.73661-14.06282-12.60938-27.16904-26.51936-29.27414Z"></path><path fill="#b5d99c" stroke="#1e4005" stroke-linecap="round" stroke-linejoin="round" stroke-width=".748" d="m120.17243,75.64629h145.70145c6.99379,0,12.66382,5.67546,12.66382,12.67644l8.07361,182.60981c0,19.67329-15.93235,35.62168-35.5861,35.62168h-116.12373c-19.65377,0-35.58628-15.94839-35.58628-35.62168l8.19337-182.60981c0-7.00098,5.66977-12.67644,12.66385-12.67644Z"></path><path fill="none" stroke="#1e4005" stroke-linecap="round" stroke-linejoin="round" stroke-width=".748" d="m120.17243,75.64642h145.70145c6.99379,0,12.66382,5.6752,12.66382,12.67644l8.07361,182.60957c0,19.67345-15.93235,35.62165-35.5861,35.62165h-116.12373c-19.65377,0-35.58628-15.9482-35.58628-35.62165l8.19337-182.60957c0-7.00124,5.66977-12.67644,12.66385-12.67644Z"></path><rect width="99.859" height="59.562" x="142.178" y="223.964" fill="#f2c36b" stroke="#1e4005" stroke-linecap="round" stroke-linejoin="round" stroke-width=".748"></rect><rect width="99.859" height="59.562" x="142.178" y="223.964" fill="none" stroke="#1e4005" stroke-linecap="round" stroke-linejoin="round" stroke-width=".748"></rect><path fill="#69c42a" stroke="#1e4005" stroke-linecap="round" stroke-linejoin="round" stroke-width=".748" d="m141.71107,145.33943h3.9943c3.32995,0,6.02939,2.70215,6.02939,6.03542v153.20057c0,3.33326-2.69944,6.03541-6.02939,6.03541h-3.9943c-3.32995,0-6.02939-2.70215-6.02939-6.03541v-153.20057c0-3.33327,2.69944-6.03542,6.02939-6.03542Z"></path><path fill="#7ec14f" stroke="#1e4005" stroke-linecap="round" stroke-linejoin="round" stroke-width=".748" d="m141.71107,145.3393h3.9943c3.32995,0,6.02939,2.7022,6.02939,6.03575v153.20029c0,3.33345-2.69944,6.03565-6.02939,6.03565h-3.9943c-3.32995,0-6.02939-2.7022-6.02939-6.03565v-153.20029c0-3.33355,2.69944-6.03575,6.02939-6.03575Z"></path><path fill="#69c42a" stroke="#1e4005" stroke-linecap="round" stroke-linejoin="round" stroke-width=".748" d="m239.74692,145.33943h3.9943c3.32993,0,6.02939,2.70215,6.02939,6.03542v153.20057c0,3.33326-2.69947,6.03541-6.02939,6.03541h-3.9943c-3.32995,0-6.02942-2.70215-6.02942-6.03541v-153.20057c0-3.33327,2.69947-6.03542,6.02942-6.03542Z"></path><path fill="#7ec14f" stroke="#1e4005" stroke-linecap="round" stroke-linejoin="round" stroke-width=".748" d="m239.74692,145.3393h3.9943c3.32993,0,6.02939,2.7022,6.02939,6.03575v153.20029c0,3.33345-2.69947,6.03565-6.02939,6.03565h-3.9943c-3.32995,0-6.02942-2.7022-6.02942-6.03565v-153.20029c0-3.33355,2.69947-6.03575,6.02942-6.03575Z"></path><path fill="#7ec14f" stroke="#1e4005" stroke-linecap="round" stroke-linejoin="round" stroke-width=".748" d="m120.05391,75.64304c-6.99405.00005-12.66385,5.67546-12.66385,12.67644l-.17149,3.77652,4.86767,32.44379c3.72266,24.83509,27.07108,44.97496,52.15922,44.97496h62.68604c23.07663-.00017,44.26879-18.55581,47.34442-41.44935l4.43235-33.03798-.29042-6.70795c0-7.00098-5.66962-12.67644-12.66387-12.67644H120.05391Z"></path><path fill="none" stroke="#1e4005" stroke-linecap="round" stroke-linejoin="round" stroke-width=".748" d="m120.05391,75.64301c-6.99405,0-12.66385,5.67562-12.66385,12.67644l-.17149,3.77673,4.86767,32.44366c3.72266,24.83481,27.07108,44.97475,52.15922,44.97475h62.68604c23.07663,0,44.26879-18.5558,47.34442-41.44901l4.43235-33.03818-.29042-6.70795c0-7.00082-5.66962-12.67644-12.66387-12.67644H120.05391Z"></path><ellipse cx="193.964" cy="154.581" fill="#f2ede4" rx="9.379" ry="9.389"></ellipse><ellipse cx="193.964" cy="154.581" fill="#f2c36b" stroke="#1e4005" stroke-linecap="round" stroke-linejoin="round" stroke-width=".748" rx="9.379" ry="9.389"></ellipse></svg>